# xmcd
#
# Track frame offsets:
#	182
#	2907
#	15702
#	21845
#	32782
#	37427
#	42520
#	52615
#	65107
#	72100
#	79295
#	88112
#	90270
#	116767
#	121757
#	132137
#	142347
#	156187
#	162035
#	163555
#	173345
#	180865
#	185632
#
# Disc length: 2791 seconds
#
# Revision: 0
# Processed by: cddbd v1.4PL0 Copyright (c) Steve Scherf et al.
# Submitted via: audiograbber 1.80.04
#
DISCID=2e0ae517
DTITLE=The Doors - Jim Morrison - An American Prayer
DYEAR=1900
DGENRE=
TTITLE0=Awake
TTITLE1=Ghost Song
TTITLE2=Dawn's Highway
TTITLE3=Newborn Awakening
TTITLE4=To Come Of Age
TTITLE5=Black Polished Chrome
TTITLE6=Latino Chrome
TTITLE7=Angels and Sailors
TTITLE8=Stoned Immaculate
TTITLE9=The Movie
TTITLE10=Curses, Invocations
TTITLE11=American Night
TTITLE12=Roadhouse Blues
TTITLE13=The World On Fire
TTITLE14=Lament
TTITLE15=The Hitchhiker
TTITLE16=An American Prayer
TTITLE17=Hour For Magic
TTITLE18=Freedom Exists
TTITLE19=A Feast Of Friends
TTITLE20=Babylon Fading
TTITLE21=Bird Of Prey
TTITLE22=The Ghost Song
EXTD=
EXTT0=
EXTT1=
EXTT2=
EXTT3=
EXTT4=
EXTT5=
EXTT6=
EXTT7=
EXTT8=
EXTT9=
EXTT10=
EXTT11=
EXTT12=
EXTT13=
EXTT14=
EXTT15=
EXTT16=
EXTT17=
EXTT18=
EXTT19=
EXTT20=
EXTT21=
EXTT22=
PLAYORDER=
